<?xml version="1.0" encoding="UTF-8"?>
<!DOCTYPE svg PUBLIC "-//W3C//DTD SVG 1.1//EN" "http://www.w3.org/Graphics/SVG/1.1/DTD/svg11.dtd">
<!-- Creator: CorelDRAW -->
<svg xmlns="http://www.w3.org/2000/svg" xml:space="preserve" width="211.893mm" height="68.8789mm" style="shape-rendering:geometricPrecision; text-rendering:geometricPrecision; image-rendering:optimizeQuality; fill-rule:evenodd; clip-rule:evenodd"
viewBox="0 0 233.176 75.7972"
 xmlns:xlink="http://www.w3.org/1999/xlink">
 <defs>
  <style type="text/css">
   <![CDATA[
    .fil0 {fill:black}
    .fil2 {fill:blue}
    .fil1 {fill:#88EEFF}
   ]]>
  </style>
 </defs>
 <g id="Layer_x0020_1">
  <metadata id="CorelCorpID_0Corel-Layer"/>
  <rect id="rect6630" class="fil0" x="4.82675" y="20.1868" width="11.7305" height="34.9389"/>
  <rect id="rect6632" class="fil1" x="6.78167" y="20.187" width="3.91013" height="23.2925"/>
  <path id="path6634" class="fil2" d="M6.78169 32.0295c0,2.61465 3.9102,2.61465 3.9102,0l0 26.0079 -3.9102 0 0 -26.0079z" sodipodi:nodetypes="csccccc"/>
  <g id="g6636">
   <path id="path6638" class="fil0" d="M4.82665 52.9908l11.7305 0c0,0 0,-9.46259 0,2.52342 0,5.993 0,10.0935 1.95515,12.6169 5.86524,7.57005 0.977522,7.57005 -1.95515,7.57005 -5.86524,0 -5.86524,0 -11.4512,0 -3.77055,0 -8.09969,0 -2.23445,-7.57005 1.95515,-2.52342 1.95515,-6.3085 1.95515,-12.6169 0,-12.6169 0,-2.52342 0,-2.52342z" sodipodi:nodetypes="cczszzszc"/>
   <path id="path6640" class="fil2" d="M6.78169 50.4675l3.9102 0c0,0 0,12.6168 0,15.1402 0,2.52342 1.17307,4.03741 1.56406,4.54207 0.390987,0.504662 1.95504,3.02808 -0.390987,3.02808 -1.95515,0 -5.47426,0 -7.42941,0 -1.56406,0 -1.56406,0 0.391097,-2.52342 1.17296,-1.51399 1.95504,-2.52331 1.95504,-5.04673 0,-2.52342 0,-15.1402 0,-15.1402z" sodipodi:nodetypes="cczccsczc"/>
  </g>
  <g id="g6642">
   <path id="path6644" class="fil0" d="M4.82665 22.7104l11.7305 0c0,0 0,9.46259 0,-2.52342 0,-5.993 0,-10.0935 1.95515,-12.6168 5.86524,-7.57016 0.977522,-7.57016 -1.95515,-7.57016 -5.86524,0 -5.86524,0 -11.4512,0 -3.77055,0 -8.09969,0 -2.23445,7.57016 1.95515,2.52331 1.95515,6.30839 1.95515,12.6168 0,12.6169 0,2.52342 0,2.52342z" sodipodi:nodetypes="cczszzszc"/>
   <path id="path6646" class="fil1" d="M6.78169 25.2337l3.9102 0c0,0 0,-12.6168 0,-15.1402 0,-2.52331 1.17307,-4.03741 1.56406,-4.54207 0.390987,-0.504662 1.95504,-3.02797 -0.390987,-3.02797 -1.95515,0 -5.47426,0 -7.42941,0 -1.56406,0 -1.56406,0 0.391097,2.52331 1.17296,1.51399 1.95504,2.52342 1.95504,5.04673 0,2.52342 0,15.1402 0,15.1402z" sodipodi:nodetypes="cczccsczc"/>
  </g>
  <rect id="rect6648" class="fil0" x="36.1081" y="20.1871" width="11.7305" height="35.3271"/>
  <g id="g6650">
   <path id="path6652" class="fil0" d="M36.108 52.9908l11.7306 0c0,0 0,-9.46259 0,2.52342 0,5.993 0,10.0935 1.95504,12.6169 5.86524,7.57005 0.977522,7.57005 -1.95504,7.57005 -5.86535,0 -5.86535,0 -11.4513,0 -3.77055,0 -8.09958,0 -2.23434,-7.57005 1.95504,-2.52342 1.95504,-6.3085 1.95504,-12.6169 0,-12.6169 0,-2.52342 0,-2.52342z" sodipodi:nodetypes="cczszzszc"/>
   <path id="path6654" class="fil2" d="M38.0632 50.4675l3.91009 0c0,0 0,12.6168 0,15.1402 0,2.52342 1.17307,4.03741 1.56417,4.54207 0.390987,0.504662 1.95504,3.02808 -0.391097,3.02808 -1.95504,0 -5.47426,0 -7.4293,0 -1.56406,0 -1.56406,0 0.390987,-2.52342 1.17307,-1.51399 1.95515,-2.52331 1.95515,-5.04673 0,-2.52342 0,-15.1402 0,-15.1402z" sodipodi:nodetypes="cczccsczc"/>
  </g>
  <g id="g6656">
   <path id="path6658" class="fil0" d="M36.108 22.7104l11.7306 0c0,0 0,9.46259 0,-2.52342 0,-5.993 0,-10.0935 1.95504,-12.6168 5.86524,-7.57016 0.977522,-7.57016 -1.95504,-7.57016 -5.86535,0 -5.86535,0 -11.4513,0 -3.77055,0 -8.09958,0 -2.23434,7.57016 1.95504,2.52331 1.95504,6.30839 1.95504,12.6168 0,12.6169 0,2.52342 0,2.52342z" sodipodi:nodetypes="cczszzszc"/>
   <path id="path6660" class="fil1" d="M38.0632 25.2337l3.91009 0c0,0 0,-12.6168 0,-15.1402 0,-2.52331 1.17307,-4.03741 1.56417,-4.54207 0.390987,-0.504662 1.95504,-3.02797 -0.391097,-3.02797 -1.95504,0 -5.47426,0 -7.4293,0 -1.56406,0 -1.56406,0 0.390987,2.52331 1.17307,1.51399 1.95515,2.52342 1.95515,5.04673 0,2.52342 0,15.1402 0,15.1402z" sodipodi:nodetypes="cczccsczc"/>
  </g>
  <rect id="rect6662" class="fil1" x="38.0631" y="20.1871" width="3.91013" height="20.1869"/>
  <path id="path6664" class="fil2" d="M38.0632 32.0295c0.000110044,2.61465 3.91009,2.61465 3.91009,0l0.000110044 20.9613 -3.9102 0 0 -20.9613z" sodipodi:nodetypes="csccccc"/>
  <rect id="rect6666" class="fil0" x="16.5571" y="35.3273" width="19.5509" height="5.04668"/>
  <rect id="rect6692" class="fil0" x="129.67" y="14.1192" width="8.73475" height="20.3811"/>
  <g id="g6694">
   <path id="path6696" class="fil0" d="M129.67 33.0445l8.73475 0c0,0 0,-5.45918 0,1.45588 0,3.45748 0,5.8231 1.45577,7.27887 4.36743,4.36743 0.727942,4.36743 -1.45577,4.36743 -4.36732,0 -4.36732,0 -8.52677,0 -2.80756,0 -6.03108,0 -1.66376,-4.36743 1.45577,-1.45577 1.45577,-3.63938 1.45577,-7.27887 0,-7.27898 0,-1.45588 0,-1.45588z" sodipodi:nodetypes="cczszzszc"/>
   <path id="path6698" class="fil2" d="M131.126 31.5887l2.91166 0c0,0 0,7.27898 0,8.73475 0,1.45577 0.87342,2.3293 1.1646,2.62048 0.291177,0.291177 1.45577,1.74695 -0.291177,1.74695 -1.45577,0 -4.07615,0 -5.53203,0 -1.1646,0 -1.1646,0 0.291177,-1.45577 0.87353,-0.87353 1.45577,-1.45588 1.45577,-2.91166 0,-1.45577 0,-8.73475 0,-8.73475z" sodipodi:nodetypes="cczccsczc"/>
  </g>
  <g id="g6700">
   <path id="path6702" class="fil0" d="M129.67 15.5751l8.73475 0c0,0 0,5.45918 0,-1.45588 0,-3.45748 0,-5.8231 1.45577,-7.27887 4.36743,-4.36743 0.727942,-4.36743 -1.45577,-4.36743 -4.36732,0 -4.36732,0 -8.52677,0 -2.80756,0 -6.03108,0 -1.66376,4.36743 1.45577,1.45577 1.45577,3.63938 1.45577,7.27887 0,7.27898 0,1.45588 0,1.45588z" sodipodi:nodetypes="cczszzszc"/>
   <path id="path6704" class="fil1" d="M131.126 17.0309l2.91166 0c0,0 0,-7.27898 0,-8.73475 0,-1.45577 0.87342,-2.3293 1.1646,-2.62048 0.291177,-0.291177 1.45577,-1.74695 -0.291177,-1.74695 -1.45577,0 -4.07615,0 -5.53203,0 -1.1646,0 -1.1646,0 0.291177,1.45577 0.87353,0.87353 1.45577,1.45588 1.45577,2.91166 0,1.45577 0,8.73475 0,8.73475z" sodipodi:nodetypes="cczccsczc"/>
  </g>
  <rect id="rect6706" class="fil1" x="131.126" y="14.1194" width="2.91155" height="20.3811"/>
  <path id="path6708" class="fil2" d="M131.126 32.0295c0,2.61465 2.91166,2.61465 2.91166,0l0 6.83814 -2.91166 0 0 -6.83814z" sodipodi:nodetypes="csccccc"/>
  <rect id="rect6624" class="fil0" x="149.839" y="3.9288" width="2.91155" height="36.3948"/>
  <polygon id="path6690" class="fil0" points="171.676,2.47291 174.587,2.47291 164.397,33.0445 162.941,28.6772 " sodipodi:nodetypes="ccccc"/>
  <rect id="rect6710" class="fil0" x="171.676" y="14.1192" width="8.73475" height="20.3811"/>
  <path id="path6714" class="fil0" d="M171.676 33.0445l8.73475 0c0,0 0,-5.45918 0,1.45588 0,3.45748 0,5.8231 1.45577,7.27887 4.36743,4.36743 0.727942,4.36743 -1.45577,4.36743 -4.36732,0 -4.36732,0 -8.52677,0 -2.80756,0 -6.03108,0 -1.66376,-4.36743 1.45577,-1.45577 1.45577,-3.63938 1.45577,-7.27887 0,-7.27898 0,-1.45588 0,-1.45588z" sodipodi:nodetypes="cczszzszc"/>
  <rect id="rect6724" class="fil1" x="173.132" y="14.1194" width="2.91155" height="21.4526"/>
  <path id="path6716" class="fil2" d="M173.131 34.6441l2.91166 0c0,0 0,4.2236 0,5.67938 0,1.45577 0.87342,2.3293 1.1646,2.62048 0.291177,0.291177 1.45577,1.74695 -0.291177,1.74695 -1.45577,0 -4.07615,0 -5.53203,0 -1.1646,0 -1.1646,0 0.291177,-1.45577 0.87353,-0.87353 1.45577,-1.45588 1.45577,-2.91166 0,-1.45577 0,-5.67938 0,-5.67938z" sodipodi:nodetypes="cczccsczc"/>
  <path id="path6720" class="fil0" d="M171.676 15.5751l8.73475 0c0,0 0,5.45918 0,-1.45588 0,-3.45748 0,-5.8231 1.45577,-7.27887 4.36743,-4.36743 0.727942,-4.36743 -1.45577,-4.36743 -4.36732,0 -4.36732,0 -8.52677,0 -2.80756,0 -6.03108,0 -1.66376,4.36743 1.45577,1.45577 1.45577,3.63938 1.45577,7.27887 0,7.27898 0,1.45588 0,1.45588z" sodipodi:nodetypes="cczszzszc"/>
  <path id="path6722" class="fil1" d="M173.131 17.0309l2.91166 0c0,0 0,-7.27898 0,-8.73475 0,-1.45577 0.87342,-2.3293 1.1646,-2.62048 0.291177,-0.291177 1.45577,-1.74695 -0.291177,-1.74695 -1.45577,0 -4.07615,0 -5.53203,0 -1.1646,0 -1.1646,0 0.291177,1.45577 0.87353,0.87353 1.45577,1.45588 1.45577,2.91166 0,1.45577 0,8.73475 0,8.73475z" sodipodi:nodetypes="cczccsczc"/>
  <path id="path6726" class="fil2" d="M173.131 32.0295c0,2.61465 2.91166,2.61465 2.91166,0l0 6.4356 -2.91166 0 0 -6.4356z" sodipodi:nodetypes="csccccc"/>
  <path id="path6728" class="fil0" d="M149.839 6.84034l8.73475 0 7.27887 21.8368 -1.45577 4.36732c-2.32919,6.9878 -3.4939,6.9878 -5.8231,0l-8.73475 -26.2042z" sodipodi:nodetypes="cccccc"/>
  <path id="path6730" class="fil0" d="M152.75 15.5751l8.73475 0c-1.54414,-4.35665 -2.91155,-7.86133 -1.74695,-9.02593 1.1646,-1.16471 -0.00451181,-0.0166167 0.291177,-0.291177 4.07626,-3.78508 0.133814,-3.78508 -2.0499,-3.78508 -4.36743,0 -4.36743,0 -8.52677,0 -2.80767,0 -6.03119,0 -1.66376,4.36743 1.45577,1.45577 2.63215,3.20273 2.92332,3.78497 0.291177,0.582354 0.87353,2.03813 2.03813,4.94979z" sodipodi:nodetypes="cczszzszc"/>
  <path id="path6732" class="fil1" d="M154.206 15.5751l2.91166 0c0,0 -0.87353,-2.62048 -1.45588,-4.36743 -0.582244,-1.74695 -2.03802,-4.36732 -0.885195,-5.53203 0.291177,-0.291177 1.45577,-1.74695 -0.291177,-1.74695 -1.45577,0 -4.07626,0 -5.53203,0 -1.1646,0 -1.1646,0 0.291177,1.45577 0.87342,0.87353 2.34108,3.4939 2.92332,4.94979 0.582354,1.45577 2.03813,5.24085 2.03813,5.24085z" sodipodi:nodetypes="cczccsczc"/>
  <polygon id="path6734" class="fil1" points="151.295,6.84034 154.206,6.84034 161.485,28.6772 158.574,28.6772 " sodipodi:nodetypes="ccccc"/>
  <path id="path6736" class="fil1" d="M157.948 23.9313l0.660595 -0.812896c0.167487,-0.281933 0.677212,-1.03871 0.453712,-1.70723l2.42262 7.266c0.831824,2.78159 -0.87353,6.11427 -1.45577,4.36732 -0.312415,-0.866047 -2.43957,-7.26049 -2.43957,-7.26049 -0.343558,-1.08889 0.358414,-1.8527 0.358414,-1.8527z" sodipodi:nodetypes="ccccccc"/>
  <path id="path6740" class="fil0" d="M149.839 30.133l2.91155 0c0,0 0,-1.96528 0,4.94968 0,3.45759 2.91155,5.24085 4.36743,6.69663 4.36732,4.36743 0.727832,4.36743 -1.45588,4.36743 -4.36732,0 -4.36732,0 -8.52677,0 -2.80756,0 -6.03108,0 -1.66376,-4.36743 1.45577,-1.45577 4.36743,-3.78497 4.36743,-6.69663 0,-2.91155 0,-4.94968 0,-4.94968z" sodipodi:nodetypes="cczszzszc"/>
  <path id="path6742" class="fil2" d="M149.839 40.0324c1.1646,1.45577 1.1646,1.1646 2.62037,2.91155 0.291177,0.291177 1.45577,1.74695 -0.291177,1.74695 -1.45577,0 -4.07615,0 -5.53192,0 -1.16471,0 -1.16471,0 0.291067,-1.45577 1.20641,-1.2764 1.74695,-1.74695 2.91166,-3.20273z" sodipodi:nodetypes="cccscc"/>
  <polygon id="path6626" class="fil0" points="63.3813,2.47291 65.7252,2.47291 54.0053,46.1467 51.6613,46.1467 " sodipodi:nodetypes="ccccc"/>
  <g id="g6668">
   <path id="path6670" class="fil0" d="M55.1772 33.0446l2.34405 0c-0.234394,0.87342 -0.468788,1.1646 -0.468788,3.4939 0,2.32919 1.64076,3.78508 2.81273,5.24085 3.51602,4.36732 0.586095,4.36732 -1.17197,4.36732 -3.51602,0 -3.51602,0 -6.86444,0 -2.26031,0 -4.85548,0 -1.33946,-4.36732 1.17197,-1.45577 3.04723,-4.36743 3.51591,-5.53203 0.468898,-1.1646 0.937686,-2.3293 1.17197,-3.20273z" sodipodi:nodetypes="cczszzszc"/>
   <path id="path6672" class="fil2" d="M54.7086 39.1589c0,0 0,0 0,0.582354 0,0.582354 1.17197,2.91155 1.40636,3.20273 0.234394,0.291177 1.17197,1.74695 -0.234394,1.74695 -1.17197,0 -3.28163,0 -4.4536,0 -0.937576,0 -0.937576,0 0.234394,-1.45577 0.703182,-0.87353 1.17197,-1.45577 1.87526,-2.3293 0.703072,-0.87342 1.17197,-1.74695 1.17197,-1.74695z" sodipodi:nodetypes="czccsczc"/>
  </g>
  <rect id="rect6674" class="fil0" x="56.3493" y="28.6772" width="15.2358" height="2.91155"/>
  <polygon id="path6676" class="fil0" points="63.8595,6.84034 70.8914,6.84034 80.2674,41.7794 73.2355,41.7794 " sodipodi:nodetypes="ccccc"/>
  <path id="path6678" class="fil0" d="M66.2036 15.5751l7.03193 0c-1.24317,-4.35665 -2.34394,-7.86133 -1.40636,-9.02593 0.937466,-1.16471 -0.00363146,-0.0166167 0.234394,-0.291177 3.28152,-3.78508 0.107623,-3.78508 -1.65033,-3.78508 -3.51602,0 -3.51602,0 -6.86455,0 -2.2602,0 -4.85537,0 -1.33946,4.36743 1.17208,1.45577 2.11912,3.20273 2.35351,3.78497 0.234504,0.582354 0.703292,2.03813 1.64087,4.94979z" sodipodi:nodetypes="cczszzszc"/>
  <g id="g6684">
   <path id="path6686" class="fil0" d="M70.8914 33.0446l7.03193 0c1.40636,5.24085 1.87526,6.69663 2.89449,8.73475 2.62389,5.24647 0.585985,4.36732 -1.17197,4.36732 -3.51591,0 -3.51591,0 -6.86455,0 -2.2602,0 -4.85537,0 -1.33935,-4.36732 1.69633,-1.41429 0.276211,-5.64119 -0.550551,-8.73475z" sodipodi:nodetypes="ccszzsc"/>
   <path id="path6688" class="fil2" d="M72.0635 33.0446l2.34394 0c0.468788,1.45577 2.10955,7.27898 2.57833,8.73475 0.234394,0.87342 1.87526,2.91155 -0.152741,2.91155 -1.17197,0 -3.28152,0 -4.4536,0 -0.937466,0 -0.937466,0 0.234504,-1.45577 0.703182,-0.87353 1.17197,-1.45577 1.17197,-2.91155 0,-1.45588 -1.72241,-7.27898 -1.72241,-7.27898z" sodipodi:nodetypes="ccccsczc"/>
  </g>
  <polygon id="path6680" class="fil1" points="66.6261,12.8073 68.9702,12.8073 74.8301,34.6441 72.4861,34.6441 " sodipodi:nodetypes="ccccc"/>
  <path id="path6682" class="fil2" d="M74.1347 32.0295l2.61674 9.74991 -2.34394 0 -2.62587 -9.74991c0.704173,2.61465 3.10919,2.61465 2.35307,0z" sodipodi:nodetypes="ccccccc"/>
  <path id="path6744" class="fil1" d="M67.3487 15.5751l2.34394 0c0,0 -0.703182,-2.62048 -1.17197,-4.36743 -0.468788,-1.74695 -1.64076,-4.36732 -0.712756,-5.53203 0.234394,-0.291177 1.17197,-1.74695 -0.234394,-1.74695 -1.17197,0 -3.28152,0 -4.45349,0 -0.937686,0 -0.937686,0 0.234284,1.45577 0.703292,0.87353 1.88473,3.4939 2.35362,4.94979 0.468788,1.45577 1.64076,5.24085 1.64076,5.24085z" sodipodi:nodetypes="cczccsczc"/>
  <polygon id="path6746" class="fil0" points="115.108,2.47291 119.476,2.47291 90.3597,46.1467 85.9924,46.1467 " sodipodi:nodetypes="ccccc"/>
  <polygon id="path6748" class="fil0" points="97.6387,6.84034 87.4481,6.84034 110.741,41.7794 120.931,41.7794 " sodipodi:nodetypes="ccccc"/>
  <path id="path6750" class="fil0" d="M103.462 15.5751l-10.1905 0c-2.91166,-4.36743 -5.90167,-7.2836 -8.44358,-9.31711 -1.45588,-1.1646 -1.01912,-3.78508 1.1646,-3.78508 4.36732,0 8.05094,0 12.2104,0 2.80756,0 6.03108,0 1.66376,4.36743 -2.10713,1.41429 0.683814,4.36732 3.59536,8.73475z" sodipodi:nodetypes="ccszzsc"/>
  <polygon id="path6752" class="fil1" points="93.7758,13.7115 97.2697,13.7115 111.828,35.5483 108.334,35.5483 " sodipodi:nodetypes="ccccc"/>
  <path id="path6754" class="fil2" d="M105.988 32.0295c1.7431,2.61465 5.237,2.61465 3.4939,0l9.41153 14.1172 -3.4939 0 -9.41153 -14.1172z" sodipodi:nodetypes="cccccc"/>
  <path id="path6756" class="fil0" d="M105.984 34.6441l10.2395 0c2.91166,4.36732 4.78637,5.684 7.32828,7.71751 1.45588,1.16471 1.01912,3.78508 -1.1646,3.78508 -4.36732,0 -8.05094,0 -12.2104,0 -2.80756,0 -6.03108,0 -1.66376,-4.36732 2.10713,-1.41429 0.382513,-2.76794 -2.52903,-7.13526z" sodipodi:nodetypes="ccszzsc"/>
  <path id="path6758" class="fil2" d="M107.822 34.6441l3.40268 0c0.582354,1.45577 3.3011,5.09714 4.17452,5.97056 0.87353,0.87353 5.13939,4.07626 2.62048,4.07626 -1.45588,0 -6.88634,0 -8.34212,0 -1.16471,0 -1.16471,0 0.291067,-1.45577 1.06325,-1.45577 1.06325,-1.45577 1.06325,-2.91166 0,-1.45577 -3.20988,-5.67938 -3.20988,-5.67938z" sodipodi:nodetypes="ccccsczc"/>
  <path id="path6760" class="fil1" d="M95.0183 15.5751l3.4939 0c0,0 -3.20273,-4.65861 -3.78508,-6.40556 -0.582354,-1.74695 0.594128,-2.32919 1.74695,-3.4939 0.291177,-0.291177 1.45577,-1.74695 -0.291177,-1.74695 -1.45577,0 -8.16418,0 -9.62006,0 -1.1646,0 -1.1646,0 0.291177,1.45577 0.87353,0.87353 2.63226,2.3293 3.79685,4.07626 1.16471,1.74695 4.36743,6.11438 4.36743,6.11438z" sodipodi:nodetypes="cczccsczc"/>
  <g id="g6762">
   <path id="path6764" class="fil0" d="M94.7271 33.0446l4.36732 0c-0.291067,0.87342 -2.00445,3.14671 -2.91155,4.36732 -0.907094,1.22061 -1.71867,2.59033 0,4.36743 4.29381,4.43973 0.727942,4.36732 -1.45577,4.36732 -4.36743,0 -4.36743,0 -8.52677,0 -2.80767,0 -3.99306,0 -0.790337,-3.20273 1.45577,-1.45577 2.91166,-2.3293 4.36743,-3.78508 1.45577,-1.45577 4.6585,-5.24085 4.94968,-6.11427z" sodipodi:nodetypes="cczszzszc"/>
   <path id="path6766" class="fil2" d="M90.3597 40.6147c0.291177,0.87353 0.740927,1.1854 1.16471,1.74695 0.291177,0.291177 1.45577,2.3293 -0.291177,2.3293 -1.45577,0 -3.20273,0 -4.6585,0 -1.16471,0 0,-0.87342 0.582244,-1.45577 0.954303,-1.02473 2.21618,-1.63955 3.20273,-2.62048z" sodipodi:nodetypes="cccscc"/>
  </g>
  <g id="g6768">
   <g id="g6770">
    <g id="g6772">
     <path id="path6774" class="fil0" d="M110.741 15.5751l-4.36743 0c1.82453,-3.04228 4.70637,-5.81462 1.45577,-8.73475 -4.36732,-4.36743 -0.727832,-4.36743 1.45588,-4.36743 4.36732,0 4.36732,0 8.52677,0 2.80756,0 5.13268,-0.0280613 2.82835,2.03813 -1.47096,1.31899 -4.08385,3.76978 -5.53203,5.24085 -1.44807,1.47118 -4.07615,4.94968 -4.36732,5.82321z" sodipodi:nodetypes="ccszzszc"/>
    </g>
   </g>
   <path id="path6776" class="fil1" d="M111.614 8.29612c0.87353,-1.1646 1.97914,-1.5667 2.91166,-2.62048 0.291067,-0.291067 2.03802,-1.74695 0.291067,-1.74695 -1.45577,0 -4.07615,0 -5.53192,0 -1.16471,0 -1.16471,0 0.291067,1.45588 1.23084,0.868689 1.74695,2.03802 2.03813,2.91155z" sodipodi:nodetypes="cccscc"/>
  </g>
  <polygon id="path6778" class="fil0" points="199.396,0 203.632,0 182.45,75.7012 178.214,75.7012 " sodipodi:nodetypes="ccccc"/>
  <g id="g6780">
   <path id="path6782" class="fil0" d="M184.568 52.9909l4.23637 0c-0.42356,1.51399 -0.84723,2.01865 -0.84723,6.05606 0,4.03741 2.96547,6.56072 5.0836,9.08414 6.35461,7.57016 1.05906,7.57016 -2.11813,7.57016 -6.35461,0 -6.35461,0 -12.4065,0 -4.08506,0 -8.77536,0 -2.42075,-7.57016 2.11813,-2.52342 5.50727,-7.57016 6.3545,-9.58881 0.84723,-2.01876 1.69457,-4.03741 2.11813,-5.5514z" sodipodi:nodetypes="cczszzszc"/>
   <path id="path6784" class="fil2" d="M183.721 63.589c0,0 0,0 0,1.00932 0,1.00932 2.11824,5.04673 2.5418,5.5514 0.42367,0.504773 2.11824,3.02808 -0.42356,3.02808 -2.11824,0 -5.93094,0 -8.04918,0 -1.69446,0 -1.69446,0 0.42367,-2.52331 1.2709,-1.5141 2.11824,-2.52342 3.38914,-4.03741 1.2709,-1.5141 2.11813,-3.02808 2.11813,-3.02808z" sodipodi:nodetypes="czccsczc"/>
  </g>
  <rect id="rect6786" class="fil0" x="186.687" y="45.4207" width="27.5363" height="5.04668"/>
  <polygon id="path6788" class="fil0" points="200.26,7.57016 212.969,7.57016 229.915,68.1311 217.206,68.1311 " sodipodi:nodetypes="ccccc"/>
  <path id="path6790" class="fil0" d="M204.496 22.7104l12.7091 0c-2.24666,-7.55134 -4.23637,-13.6262 -2.5418,-15.6449 1.69446,-2.01876 -0.00660265,-0.0288316 0.42356,-0.504773 5.93094,-6.56072 0.194668,-6.56072 -2.98264,-6.56072 -6.3545,0 -6.3545,0 -12.4064,0 -4.08506,0 -8.77536,0 -2.42086,7.57016 2.11824,2.52331 3.82998,5.5514 4.25354,6.56072 0.42367,1.00932 1.2709,3.53275 2.96547,8.57948z" sodipodi:nodetypes="cczszzszc"/>
  <polygon id="path6792" class="fil1" points="202.361,7.57016 206.598,7.57016 217.188,45.4207 212.952,45.4207 " sodipodi:nodetypes="ccccc"/>
  <path id="path6794" class="fil2" d="M213.441 32.0295l10.1187 36.1016 -4.23637 0 -10.1187 -36.1016c0.731574,2.61465 4.96794,2.61465 4.23637,0z" sodipodi:nodetypes="ccccccc"/>
  <g id="g6796">
   <path id="path6798" class="fil0" d="M212.969 52.9909l12.7091 0c2.5418,9.08414 3.38914,11.6075 5.23128,15.1402 4.74213,9.09383 1.05906,7.57016 -2.11824,7.57016 -6.3545,0 -6.3545,0 -12.4064,0 -4.08506,0 -8.77536,0 -2.42086,-7.57016 3.06594,-2.45145 0.49916,-9.77808 -0.994909,-15.1402z" sodipodi:nodetypes="ccszzsc"/>
   <path id="path6800" class="fil2" d="M215.087 52.9909l4.23637 0c0.84723,2.52331 3.8127,12.6168 4.65993,15.1402 0.42367,1.51399 3.38914,5.04673 -0.275991,5.04673 -2.11813,0 -5.93083,0 -8.04907,0 -1.69457,0 -1.69457,0 0.42367,-2.52331 1.2709,-1.5141 2.11813,-2.52342 2.11813,-5.04684 0,-2.52331 -3.11304,-12.6168 -3.11304,-12.6168z" sodipodi:nodetypes="ccccsczc"/>
  </g>
  <path id="path6802" class="fil1" d="M206.566 22.7104l4.23626 0c0,0 -1.2709,-4.54207 -2.11813,-7.57016 -0.84734,-3.02797 -2.96547,-7.57005 -1.28807,-9.58881 0.42367,-0.504662 2.11813,-3.02797 -0.42367,-3.02797 -2.11813,0 -5.93083,0 -8.04907,0 -1.69457,0 -1.69457,0 0.42367,2.52331 1.2709,1.5141 3.4062,6.05606 4.25354,8.57948 0.84723,2.52342 2.96547,9.08414 2.96547,9.08414z" sodipodi:nodetypes="cczccsczc"/>
  <path id="path6736_0" class="fil2" d="M161.458 32.0692c-0.379982,1.29742 -1.09208,1.9852 -1.42859,0.975321 -0.312415,-0.866047 -0.34917,-1.01505 -0.34917,-1.01505 1.07194,2.61465 1.77776,0.0397259 1.77776,0.0397259z" sodipodi:nodetypes="ccccccc"/>
 </g>
</svg>
