/* XPM */
static char * castle_adare_xpm[] = {
"64 64 10 1",
" 	c None",
".	c #00FFFF",
"+	c #008FFF",
"@	c #17EA1E",
"#	c #45A845",
"$	c #1D7025",
"%	c #808080",
"&	c #000000",
"*	c #D11824",
"=	c #A160D6",
"........++++++++++++++++++++++++++++++++++...................+++",
"..........++++++++++++++++++++++++++++..........................",
"..............+++++++++++++++++++++.............................",
"@@@#@#.........+++++++++++++++++++..............@@@@@@@.........",
"#####@.................++++++.............@@@@@@@@@@@@@@@@@@@...",
"$$##@#..................................@@@@@@@@@@@@@@@@@@@@@@@@",
"$$###.....%%%%%.................%%%%...%%%@%%%@@@@@@@@@@@@@@@@@@",
"$$##@.....%@@@%%%%%%%%%%%%%%%%%%%@@%%%%%@%&%@%%%%%%%%%%%%%%%%@@@",
"$$##@.....%@@@%@@@@@@@@@@@@@@@@@@@@%...%@%&%@%@@@@@@@@@@@@@@%@@@",
"$$###.....%@@@%@@@@@@@@@@@@@@@@@%%%%...%@@&@@@@@@@@@@@@@@@@@%@@@",
"$$##@.....%%%@%@@@@@@@@@@@@@@@@@@@@%...%%@&@@@@@@@@@@@@@@@@@%@@@",
"$##@@......%@@@@@@@@@@@@@@@@@@@@@@@%....%@&@@@@@@@@@@@@@@@@@%@@@",
"$##@.......%@@@@@@@@@@@@@%%%%%%%%%%%%...%@&@@@@@@@@@@@@@@@@@%@@@",
"###@.......%@@@@@@@@@@@@@%&&&&&&&&&&%...@@&@@@@@@@@@@@@@@@@@%@@@",
"###@.......%@@@@@@@@@@@@@%&%%%%%%%%&%...@@&@@@@@@@@@@@@@@@@@%@@@",
"###@.......%@@@@@@@@@@@@@%&%******%&%...@@&@@@@@@@@@@@@@@@@@%@@@",
"###@.......%@@@@@@@@@@@@@%&%******%&%...@@&@@@@@@@@@@@@@@@@@%@@@",
"###@.......%@@@@@@@@@@@@@%%%******%&%...@@&@@@@@@@@@@@@@@@@@%@@@",
"##@@.......%@@@@@@@@@@@@&*********%&%...@@&@@@@@@@@@@@@@@@@@%@@@",
"##@@.......%@@@@@@@@@@@@&%%%******%&%...@@&@@@@@@@@@@@@@@@@@%@@@",
"##@........%@@@@@@@@@@@@&%&%******%&%...@@&@@@@@@@@@@@@@@@@@%@@@",
"##@......%%%%@@@@@@@@@@@&%&%******%&%...@@&@@@@@@@@@@@@@@@@@%@@@",
"##@......%@@@@@@@@@@@@@@&%&%%%%%%%%&%...@@&@@@@@@@@@@@@@@@@@%@@@",
"##@......%@@@%@@@@@@@@@@&%&&&&&&&&&&%...@@&@@@@@@@@@@@@@@@@@%@@@",
"@@@......%@@@%@@@@@@@@@@&%%%%%%%%%%%%...@@&@@@@@@@@@@@@@@@@@%@@@",
"@@.......%%%%%@@@@@@@@@@&@@@@@@@@@@%....@@&@@@@@@@@@@@@@@@@@%@@@",
"@.........%%.%%%@@@@@@@@&@@@@@@@@@@%....@@&@@@@@@@@@@@@@@@@@%@@@",
"@....@%%%%%....%%%%@@@@@&@@@@@@@@@%%....@@&@@@@@@@@@@@@@@@@@%@@@",
"@....@%@@@%.......%%%@@%&%@@@@@@@%%.....@@&@@@@@@@@@@@@@@@@@%@@@",
"@....@%@@@@.........%%@%&%@%%%%%%%.....@@@&@@@@@@@@@@@@@@@@@%@@@",
"@...@@%%%%@@@........%%%&%%%...........@@@&@@@@@@@@@@@@@@@@@%@@@",
"&&&&&&&&&&&&&@.........%&%............@@@@&@@@@@@@@@@@@@@@@@%@@@",
"&&&&&&&&&&&&&@@@@...................@@@@@@&@@@@@@@@@@@@@@@@@%@@@",
"@...@@%%%%@&&@@@@@..............@@@@@@@@@@&@@@@@@@@@@@@@@@@@%@@@",
"@...@@%@@%@&&@@@@@@@..........@@@@@@@@@@@@&@@@@@@@@@@@@@@@@@%@@@",
"@...@@%@@%@&&@@@@@@@@@@@&@@@@@@@@@@@@@@@@@&@@@@@@@@@@@@@@@@@%@@@",
"@...@@%%@%@&&@@@@@@@@@@@&@@@@@@@@@@@@@@@@@&@@@@@@@@@@@@@@@@@%@@@",
"@...@@@%@@@&&&&&&&&&&&&&&&&&&&&&&&&&&&&&&&&&&&&&&&&&&&&&&&&&&@@@",
"@...@@@%@@@&&&&&&&&&&&&&&&&&&&&&&&&&&&&&&&&&&&&@@@@@@@@@@@@@%@@@",
"@...@@@%@@@&@@@@@@@@@@@@@@@@@@@@@@@@@@@@@@@@@&&@@@@@@@@@@@@@%@@@",
"@...@@@%@@@&@@@@@@@@@@@@@@@@@@@@@@@@@@@@@@@@@&&@@@@@@@@@@@@@%@@@",
"@...@@@%@@@&@@@@@@@@@@@@@@@@@@@@@@@@@@@@@@@@%**%@@@@@@@@@@@@%@@@",
"@...@@@%@@@&@@@@@@@@@@@@@@@@@@@@@@@@%@@@%@@%%**%%@@%@@@@@@@@%@@@",
"@..=@@@%@@@&@@@@@@@@@@@@@@@@@@@@@%%%%%%%%%%%****%%%%%%%%@@@@%@@@",
"@...@@@%@@@&@@@@@@@@@@@@@@@@@@@@@%*****************%***%@@@@%@@@",
"@...@@@%@@@&@@@@@@@@@@@@@@@@@@@@@%*********************%@@@@%@@@",
"#=..@@@%%%%&%%%%%%%%%%@@@@@@@@@@@%***%*****%*****%%%%%%%@@@@%@@@",
"#..==@@%*************%@@@@@@@@@@@%***************%@@@@@@@@@@%@@@",
"#...=@@%*************%@@@@@@@@@@@%***************%%%%%%%@@@@%@@@",
"#=..=@@%*************%@@@@@@@@@@@%*********************%@@@@%@@@",
"#..===@%*************%@@@@@@@@@@@%***************%*****%@@@@%@@@",
"#=====@%*************%@@@@@@@@@@@%***************%*****%@@@@%@@@",
"#====@@%*%*%%%%%*****%@@@@@@@@@@@%***%*****%*****%*****%@@@@%@@@",
"#==.=@@%*%***********%@@@@@@@@@@@%***************%%%%%%%@@@@%@@@",
"#=.==@@%*%***********%@@@@@@@@@@@%***************%@@@@@@@@@@%@@@",
"#====@@%*%%%%%%%%%%%%%@@@@@@@@@@@%***************%@@@@@@@@@@%@@@",
"#=.==@@%**%@@@@@@@@@@%%%%%%%%%%%%%%%%%%%%%%%%%%%%%%%%%%%%%%%%@@@",
"#==.=@@%**%@@@@@@@@@@@@@@@@@@@@@@@%@@@@@@@@@@@@@@@@@@@@@@@@@@@@@",
"#=====@%**%@@@@@@@@@@@@@@@@@@@@@@@@@@@@@@@@@@@@@@@@@@@@@@@@@@@@@",
"#=.=.=@%%%%@@@@@@@@@@@@@@@@@@@@@@@@@@@@@@@@@@@@@@@@@@@@@@@@@@@##",
"#==.==@@@@@@@@@@@@@@@######@@@@@@@@@@@@###########@@@@@@@@@#####",
"##====@@@@@@@@@@@@@#############################################",
"###==#@@@@@@@#######$$$$$$$##############$$$$$$$##############$$",
"####################$$$$$$$$$$$$$$$$$$$$$$$$$$$$$$$$$$$$$$$$$$$$"};
